<svg width="24" height="24" viewBox="0 0 24 24" fill="none" xmlns="http://www.w3.org/2000/svg">
<path d="M18.3002 5.71002C18.1134 5.52276 17.8597 5.41753 17.5952 5.41753C17.3307 5.41753 17.077 5.52276 16.8902 5.71002L12.0002 10.59L7.11021 5.70002C6.92338 5.51276 6.66973 5.40753 6.40521 5.40753C6.1407 5.40753 5.88705 5.51276 5.70021 5.70002C5.31021 6.09002 5.31021 6.72002 5.70021 7.11002L10.5902 12L5.70021 16.89C5.31021 17.28 5.31021 17.91 5.70021 18.3C6.09021 18.69 6.72021 18.69 7.11021 18.3L12.0002 13.41L16.8902 18.3C17.2802 18.69 17.9102 18.69 18.3002 18.3C18.6902 17.91 18.6902 17.28 18.3002 16.89L13.4102 12L18.3002 7.11002C18.6802 6.73002 18.6802 6.09002 18.3002 5.71002Z" fill="white"/>
</svg>
